<?xml version="1.0" encoding="utf-8"?>
<?xml-stylesheet type="text/xsl" href="rss1.xsl"?>
<rss version="2.0" xmlns:atom="http://www.w3.org/2005/Atom" xmlns:content="http://purl.org/rss/1.0/modules/content/" xmlns:dc="http://purl.org/dc/elements/1.1/" xmlns:media="http://search.yahoo.com/mrss/">
<channel>
 <title>Getty</title>
 <link>http://www.gettyimg.com/</link>
 <atom:link href="http://www.gettyimg.com/" rel="self" type="application/rss+xml" />

 
                <item>
                <title><![CDATA[【Singles (lossless)】ALAC - The Vamps - Somebody To You (ReVamped) | ALAC Lossless | 24bits/48.0 kHz | 1 759 kb/s]]></title>
                <link><![CDATA[https://sharemania.us/threads/the-vamps-somebody-to-you-revamped-alac-lossless-24bits-48-0-khz-1-759-kb-s.246328/]]></link>
                <description><![CDATA[<article>
<blockquote class="messageText SelectQuoteContainer ugc baseHtml">
<img src="https://m.media-amazon.com/images/I/81j7EReGrpL.jpg" class="bbCodeImage LbImage" alt="[​IMG]" data-url="https://m.media-amazon.com/images/I/81j7EReGrpL.jpg" style=""> <br>
<div class="ToggleTriggerAnchor bbCodeSpoilerContainer">
<button type="button" class="button bbCodeSpoilerButton ToggleTrigger Tooltip JsOnly" data-target="> .SpoilerTarget"><span>Spoiler: <span class="SpoilerTitle">MediaInfo</span></span></button>
<div class="SpoilerTarget bbCodeSpoilerText"><b>File Info:</b><br>
Format: MPEG-4<br>
Format profile: Apple audio with iTunes info<br>
Codec ID: M4A (M4A /mp42/isom)<br>
File size: 51.4 MiB<br>
Duration: 4 min 4 s<br>
Overall bit rate mode: Variable<br>
Overall bit rate: 1 765 kb/s<br>
Album: Somebody To You (ReVamped) - Single<br>
Album/Performer: The Vamps<br>
Part/Position: 1<br>
Part/Total: 1<br>
Track name: Somebody To You (ReVamped)<br>
Track name/Position: 1<br>
Track name/Total: 1<br>
Performer: The Vamps<br>
Composer: Carl Falk, Savan Kotecha &amp; Kristian Lundin<br>
Producer: The Vamps<br>
Genre: Pop / Music<br>
ContentType: Music<br>
Copyright: ℗ 2024 The Vamps<br>
Cover: Yes<br>
Rating: Clean<br>
Songwriter: Savan Kotecha / Kristian Lundin / Carl Falk<br>
<br>
<b>Audio Info:</b><br>
ID: 1<br>
Format: ALAC<br>
Codec ID/Info: Apple Lossless Audio Codec<br>
Duration: 4 min 4 s<br>
Duration_LastFrame: -81 ms<br>
Bit rate mode: Variable<br>
Bit rate: 1 759 kb/s<br>
Nominal bit rate: 2 304 kb/s<br>
Channel(s): 2 channels<br>
Sampling rate: 48.0 kHz<br>
Bit depth: 24 bits<br>
Stream size: 51.2 MiB (100%)<br>
Title: Core Media Audio</div>
</div>
<div class="bbCodeBlock bbCodeVfcHH HiddenContent">
<div class="attribution type">Hidden Content:</div>
<blockquote>You must reply before you can see the hidden data contained here.</blockquote>
</div>
<div class="messageTextEndMarker">&nbsp;</div>
</blockquote>
</article>]]></description>
                <author><![CDATA[kkgonea13]]></author>
                </item>

                
                <item>
                <title><![CDATA[【Singles (lossless)】ALAC - Sabrina Carpenter - Espresso [E] | ALAC Lossless | 24bits/48.0 kHz | 1 871 kb/s]]></title>
                <link><![CDATA[https://sharemania.us/threads/sabrina-carpenter-espresso-e-alac-lossless-24bits-48-0-khz-1-871-kb-s.246324/]]></link>
                <description><![CDATA[<article>
<blockquote class="messageText SelectQuoteContainer ugc baseHtml">
<img src="https://a1.mzstatic.com/r40/Music211/v4/f6/97/58/f69758d6-24d8-6e44-be5b-26819921bfc7/24UMGIM61704.rgb.jpg" class="bbCodeImage LbImage" alt="[​IMG]" data-url="https://a1.mzstatic.com/r40/Music211/v4/f6/97/58/f69758d6-24d8-6e44-be5b-26819921bfc7/24UMGIM61704.rgb.jpg" style=""><br>
<b>Source:</b> <i>Apple Music</i><br>
<div class="ToggleTriggerAnchor bbCodeSpoilerContainer">
<button type="button" class="button bbCodeSpoilerButton ToggleTrigger Tooltip JsOnly" data-target="> .SpoilerTarget"><span>Spoiler: <span class="SpoilerTitle">MediaInfo</span></span></button>
<div class="SpoilerTarget bbCodeSpoilerText"><b>File Info:</b><br>
Format: MPEG-4<br>
Format profile: Apple audio with iTunes info<br>
Codec ID: M4A (M4A /mp42/isom)<br>
File size: 39.3 MiB<br>
Duration: 2 min 55 s<br>
Overall bit rate mode: Variable<br>
Overall bit rate: 1 878 kb/s<br>
Album: Short n' Sweet<br>
Album/Performer: Sabrina Carpenter<br>
Part/Position: 1<br>
Part/Total: 1<br>
Track name: Espresso<br>
Track name/Position: 7<br>
Track name/Total: 12<br>
Performer: Sabrina Carpenter<br>
Composer: Sabrina Carpenter, Jack Antonoff &amp; Amy Allen<br>
Genre: Pop / Music<br>
ContentType: Music<br>
Description: Hear “Please Please Please” and “Espresso” and pre-add the album now. When it’s released, all of the tracks will be available in your library.<br>
Copyright: ℗ 2024 Island Records, a division of UMG Recordings, Inc.<br>
Cover: Yes<br>
Rating: Explicit<br>
GenreID: 14<br>
pub: Island Records<br>
<br>
<b>Audio Info:</b><br>
ID: 1<br>
Format: ALAC<br>
Codec ID/Info: Apple Lossless Audio Codec<br>
Duration: 2 min 55 s<br>
Duration_LastFrame: -71 ms<br>
Bit rate mode: Variable<br>
Bit rate: 1 871 kb/s<br>
Nominal bit rate: 2 304 kb/s<br>
Channel(s): 2 channels<br>
Sampling rate: 48.0 kHz<br>
Bit depth: 24 bits<br>
Stream size: 39.1 MiB (100%)<br>
Title: Core Media Audio</div>
</div>
<div class="bbCodeBlock bbCodeVfcHH HiddenContent">
<div class="attribution type">Hidden Content:</div>
<blockquote>You must reply before you can see the hidden data contained here.</blockquote>
</div>
<div class="messageTextEndMarker">&nbsp;</div>
</blockquote>
</article>]]></description>
                <author><![CDATA[kkgonea13]]></author>
                </item>

                
                <item>
                <title><![CDATA[【Singles (lossless)】ALAC - Sabrina Carpenter - Please Please Please [E] | ALAC Lossless | 24bits/48.0 kHz | 1 817 kb/s]]></title>
                <link><![CDATA[https://sharemania.us/threads/sabrina-carpenter-please-please-please-e-alac-lossless-24bits-48-0-khz-1-817-kb-s.246325/]]></link>
                <description><![CDATA[<article>
<blockquote class="messageText SelectQuoteContainer ugc baseHtml">
<img src="https://a1.mzstatic.com/r40/Music211/v4/f6/97/58/f69758d6-24d8-6e44-be5b-26819921bfc7/24UMGIM61704.rgb.jpg" class="bbCodeImage LbImage" alt="[​IMG]" data-url="https://a1.mzstatic.com/r40/Music211/v4/f6/97/58/f69758d6-24d8-6e44-be5b-26819921bfc7/24UMGIM61704.rgb.jpg" style=""><br>
<b>Source:</b> <i>Apple Music</i><br>
<div class="ToggleTriggerAnchor bbCodeSpoilerContainer">
<button type="button" class="button bbCodeSpoilerButton ToggleTrigger Tooltip JsOnly" data-target="> .SpoilerTarget"><span>Spoiler: <span class="SpoilerTitle">MediaInfo</span></span></button>
<div class="SpoilerTarget bbCodeSpoilerText"><b>File Info:</b><br>
Format: MPEG-4<br>
Format profile: Apple audio with iTunes info<br>
Codec ID: M4A (M4A /mp42/isom)<br>
File size: 40.5 MiB<br>
Duration: 3 min 6 s<br>
Overall bit rate mode: Variable<br>
Overall bit rate: 1 823 kb/s<br>
Album: Short n' Sweet<br>
Album/Performer: Sabrina Carpenter<br>
Part/Position: 1<br>
Part/Total: 1<br>
Track name: Please Please Please<br>
Track name/Position: 2<br>
Track name/Total: 12<br>
Performer: Sabrina Carpenter<br>
Composer: Sabrina Carpenter, Jack Antonoff &amp; Amy Allen<br>
Genre: Pop / Music<br>
ContentType: Music<br>
Description: Hear “Please Please Please” and “Espresso” and pre-add the album now. When it’s released, all of the tracks will be available in your library.<br>
Copyright: ℗ 2024 Island Records, a division of UMG Recordings, Inc.<br>
Cover: Yes<br>
Rating: Explicit<br>
GenreID: 14<br>
pub: Island Records<br>
<br>
<b>Audio Info:</b><br>
ID: 1<br>
Format: ALAC<br>
Codec ID/Info: Apple Lossless Audio Codec<br>
Duration: 3 min 6 s<br>
Duration_LastFrame: -3 ms<br>
Bit rate mode: Variable<br>
Bit rate: 1 817 kb/s<br>
Nominal bit rate: 2 304 kb/s<br>
Channel(s): 2 channels<br>
Sampling rate: 48.0 kHz<br>
Bit depth: 24 bits<br>
Stream size: 40.4 MiB (100%)<br>
Title: Core Media Audio</div>
</div>
<div class="bbCodeBlock bbCodeVfcHH HiddenContent">
<div class="attribution type">Hidden Content:</div>
<blockquote>You must reply before you can see the hidden data contained here.</blockquote>
</div>
<div class="messageTextEndMarker">&nbsp;</div>
</blockquote>
</article>]]></description>
                <author><![CDATA[kkgonea13]]></author>
                </item>

                
                <item>
                <title><![CDATA[【Requests】[REQ AUD] - Requesting songs/Rip 14 songs in total, Please thanks!!]]></title>
                <link><![CDATA[https://sharemania.us/threads/requesting-songs-rip-14-songs-in-total-please-thanks.246327/]]></link>
                <description><![CDATA[<article>
<blockquote class="messageText SelectQuoteContainer ugc baseHtml">
thanks
<div class="messageTextEndMarker">&nbsp;</div>
</blockquote>
</article>]]></description>
                <author><![CDATA[Edbeby]]></author>
                </item>

                
                <item>
                <title><![CDATA[【HD Live Performances】HDTV - [Mnet] M Countdown E846 240606 XG - WOKE UP 1080p 60fps]]></title>
                <link><![CDATA[https://sharemania.us/threads/mnet-m-countdown-e846-240606-xg-woke-up-1080p-60fps.246326/]]></link>
                <description><![CDATA[<article>
<blockquote class="messageText SelectQuoteContainer ugc baseHtml">
thanks
<div class="messageTextEndMarker">&nbsp;</div>
</blockquote>
</article>]]></description>
                <author><![CDATA[Sergiote12]]></author>
                </item>

                </channel></rss>